<?xml version="1.0" standalone="no"?>
<!DOCTYPE svg PUBLIC "-//W3C//DTD SVG 20010904//EN"
 "http://www.w3.org/TR/2001/REC-SVG-20010904/DTD/svg10.dtd">
<svg version="1.0" xmlns="http://www.w3.org/2000/svg"
 width="1076.000000pt" height="1076.000000pt" viewBox="0 0 1076.000000 1076.000000"
 preserveAspectRatio="xMidYMid meet">

<g transform="translate(0.000000,1076.000000) scale(0.100000,-0.100000)"
fill="#adc1ef" stroke="none">
<path d="M510 10745 c-242 -44 -452 -256 -495 -500 -12 -68 -14 -768 -15
-4860 0 -3263 3 -4800 11 -4844 22 -141 78 -249 180 -351 74 -75 186 -138 285
-164 56 -15 515 -16 4897 -16 3452 0 4851 3 4889 11 171 35 348 177 426 339
22 47 45 109 51 138 8 38 11 1437 11 4889 0 4382 -1 4841 -16 4897 -26 99 -89
211 -164 285 -102 102 -210 158 -351 180 -44 8 -1580 11 -4849 10 -3970 -1
-4798 -3 -4860 -14z m2632 -1603 l33 -32 0 -730 0 -730 -33 -32 -32 -33 -731
0 -731 0 -34 37 -34 38 0 721 0 721 39 39 39 39 726 -2 726 -3 32 -33z m2040
0 l33 -32 0 -730 0 -730 -33 -32 -32 -33 -730 0 -730 0 -32 33 -33 32 -3 726
-2 726 39 39 39 39 726 -2 726 -3 32 -33z m2040 0 l33 -32 0 -730 0 -730 -33
-32 -32 -33 -730 0 -730 0 -32 33 -33 32 0 729 0 729 25 27 c14 15 34 31 45
36 11 4 343 7 737 6 l718 -2 32 -33z m-4117 -1976 c19 -8 44 -30 55 -48 19
-32 20 -49 20 -741 0 -772 2 -743 -57 -783 -27 -18 -57 -19 -743 -19 -686 0
-716 1 -743 19 -59 40 -57 11 -57 783 0 692 1 709 20 741 39 63 16 61 778 62
581 0 698 -2 727 -14z m2040 0 c19 -8 44 -30 55 -48 19 -32 20 -49 20 -741 0
-772 2 -743 -57 -783 -27 -18 -57 -19 -743 -19 -686 0 -716 1 -743 19 -59 40
-57 11 -57 783 0 692 1 709 20 741 39 63 16 61 778 62 581 0 698 -2 727 -14z
m4080 0 c19 -8 44 -30 55 -48 19 -32 20 -49 20 -741 0 -772 2 -743 -57 -783
-27 -18 -57 -19 -743 -19 -686 0 -716 1 -743 19 -59 40 -57 11 -57 783 0 692
1 709 20 741 39 63 16 61 778 62 581 0 698 -2 727 -14z m-2880 -177 c56 -21
80 -45 66 -67 -5 -8 -37 -14 -82 -16 -132 -5 -199 -38 -199 -99 0 -28 18 -50
140 -172 77 -77 140 -144 140 -150 0 -6 -27 -37 -60 -70 l-60 -59 -128 127
c-117 115 -132 127 -165 127 -50 0 -67 -21 -67 -82 0 -46 -4 -54 -44 -94 -63
-64 -92 -61 -168 14 -75 76 -78 105 -14 168 39 40 48 44 92 44 27 0 54 4 60 8
22 14 33 50 27 86 -6 37 -4 40 88 130 68 67 107 97 139 109 66 23 168 21 235
-4z m562 -47 c9 -6 -6 -26 -47 -67 -38 -38 -60 -68 -60 -82 0 -28 79 -113 105
-113 10 0 49 27 86 60 l68 61 6 -35 c17 -90 -64 -203 -161 -224 -27 -5 -63 -9
-81 -9 -28 2 -56 -22 -277 -236 l-246 -239 0 -63 c0 -77 -11 -109 -53 -154
-55 -58 -153 -89 -197 -61 -12 7 -3 21 48 70 34 33 62 67 62 76 0 24 -90 114
-114 114 -13 0 -45 -24 -81 -60 -33 -33 -63 -60 -67 -60 -15 0 -7 105 11 146
36 79 136 133 218 118 35 -7 36 -6 284 242 l249 249 -6 41 c-12 84 36 172 118
213 43 21 112 28 135 13z m-105 -839 c228 -227 230 -232 158 -297 -69 -63 -70
-62 -287 161 -106 109 -193 201 -193 205 0 9 110 128 118 128 3 0 95 -89 204
-197z m-3664 -967 l37 -34 2 -719 c2 -562 0 -723 -10 -743 -7 -13 -28 -35 -46
-47 l-35 -23 -719 2 -719 3 -34 37 -34 38 0 721 0 721 39 39 39 39 721 0 721
0 38 -34z m4080 0 l37 -34 0 -731 0 -731 -33 -32 -32 -33 -730 0 -730 0 -32
33 -33 32 -3 726 -2 726 39 39 39 39 721 0 721 0 38 -34z m2043 -5 l39 -39 -2
-726 -3 -726 -33 -32 -32 -33 -730 0 -730 0 -32 33 -33 32 0 731 0 731 37 34
38 34 721 0 721 0 39 -39z m-4717 -133 c8 -13 18 -49 21 -81 13 -104 55 -119
145 -53 34 25 69 46 78 46 18 0 172 -150 172 -168 0 -6 -21 -41 -46 -78 -45
-66 -45 -67 -32 -103 13 -35 16 -36 78 -44 105 -13 110 -19 110 -140 0 -68 -4
-109 -13 -121 -9 -12 -37 -21 -90 -28 -75 -11 -77 -12 -88 -45 -10 -33 -9 -38
35 -101 25 -37 46 -73 46 -81 0 -14 -125 -147 -152 -162 -21 -11 -42 -2 -107
48 -79 60 -125 39 -136 -63 -10 -96 -21 -104 -145 -104 -120 0 -134 9 -145 91
-10 79 -13 88 -46 105 -30 15 -31 14 -91 -30 -84 -63 -101 -61 -175 17 -93 97
-93 97 -38 177 45 65 47 70 36 103 -11 33 -13 34 -88 45 -53 7 -81 16 -90 28
-9 12 -13 52 -13 119 0 119 6 130 85 140 89 11 93 13 105 50 11 32 9 38 -34
101 -25 36 -46 71 -46 76 0 18 143 158 167 164 17 5 37 -5 78 -35 70 -53 77
-56 113 -37 26 14 30 22 36 78 12 104 17 108 146 108 103 0 110 -1 124 -22z
m601 -1842 c19 -8 44 -30 55 -48 19 -32 20 -49 20 -742 0 -693 0 -709 -20
-741 -41 -66 -25 -65 -783 -65 -648 0 -684 1 -724 19 -77 35 -73 -7 -73 788 0
692 1 709 20 741 39 63 16 61 778 62 581 0 698 -2 727 -14z m2040 0 c19 -8 44
-30 55 -48 19 -32 20 -49 20 -741 0 -795 4 -753 -73 -788 -40 -18 -75 -19
-727 -19 -652 0 -687 1 -727 19 -77 35 -73 -7 -73 788 0 692 1 709 20 741 39
63 16 61 778 62 581 0 698 -2 727 -14z m2040 0 c19 -8 44 -30 55 -48 19 -32
20 -49 20 -741 0 -795 4 -753 -73 -788 -40 -18 -75 -19 -727 -19 -652 0 -687
1 -727 19 -77 35 -73 -7 -73 788 0 692 1 709 20 741 39 63 16 61 778 62 581 0
698 -2 727 -14z"/>
<path d="M4304 4641 c-155 -71 -219 -248 -143 -399 32 -65 66 -99 133 -135 59
-32 193 -31 253 1 66 34 110 78 139 138 24 49 26 63 22 137 -5 91 -19 126 -76
189 -55 61 -120 88 -212 88 -52 0 -88 -6 -116 -19z m242 -57 c191 -117 150
-396 -67 -454 -84 -23 -162 2 -236 73 -128 123 -77 340 94 403 62 23 152 14
209 -22z"/>
</g>
</svg>
